<!DOCTYPE svg PUBLIC "-//W3C//DTD SVG 1.1//EN" "http://www.w3.org/Graphics/SVG/1.1/DTD/svg11.dtd">
<!-- Uploaded to: SVG Repo, www.svgrepo.com, Transformed by: SVG Repo Mixer Tools -->
<svg height="800px" width="800px" version="1.1" id="Layer_1" xmlns="http://www.w3.org/2000/svg" xmlns:xlink="http://www.w3.org/1999/xlink" viewBox="0 0 512 512" xml:space="preserve" fill="#000000">
<g id="SVGRepo_bgCarrier" stroke-width="0"/>
<g id="SVGRepo_tracerCarrier" stroke-linecap="round" stroke-linejoin="round"/>
<g id="SVGRepo_iconCarrier"> <g transform="translate(1 1)"> <path style="fill:#FFE100;" d="M295.107,63.853c1.707-4.267,2.56-8.533,2.56-13.653c0-20.48-16.213-39.253-36.693-41.813 C234.52,4.12,212.333,24.6,212.333,50.2c0,5.12,0.853,9.387,2.56,13.653c4.267,11.947,5.973,24.747,2.56,37.547 c-5.973,25.6-21.333,42.667-39.253,42.667h153.6c-17.92,0-33.28-17.067-39.253-41.813C289.133,89.453,290.84,76.653,295.107,63.853 "/> <path style="fill:#63D3FD;" d="M383,212.333H127v-42.667c0-14.507,11.093-25.6,25.6-25.6h204.8c14.507,0,25.6,11.093,25.6,25.6 V212.333z"/> <path style="fill:#FDCC00;" d="M144.067,297.667v-34.133H127c-28.16,0-51.2,34.133-51.2,76.8s23.04,76.8,51.2,76.8h17.067V383H127 c-8.533,0-17.067-14.507-17.067-42.667c0-28.16,8.533-42.667,17.067-42.667H144.067z"/> <path style="fill:#FFFFFF;" d="M92.867,340.333c0-42.667,23.04-76.8,51.2-76.8H127c-28.16,0-51.2,34.133-51.2,76.8 s23.04,76.8,51.2,76.8h17.067C115.907,417.133,92.867,383,92.867,340.333"/> <path style="fill:#FDCC00;" d="M365.933,297.667v-34.133H383c28.16,0,51.2,34.133,51.2,76.8s-23.04,76.8-51.2,76.8h-17.067V383H383 c8.533,0,17.067-14.507,17.067-42.667c0-28.16-8.533-42.667-17.067-42.667H365.933z"/> <path style="fill:#FFE100;" d="M144.067,212.333v256c0,18.773,15.36,34.133,34.133,34.133h153.6 c18.773,0,34.133-15.36,34.133-34.133v-256H144.067z"/> <g> <path style="fill:#FFA800;" d="M340.333,212.333v256c0,18.773-15.36,34.133-34.133,34.133h25.6 c18.773,0,34.133-15.36,34.133-34.133v-256H340.333z"/> <path style="fill:#FFA800;" d="M292.547,102.253c-3.413-12.8-0.853-25.6,3.413-37.547c0.853-5.12,1.707-9.387,1.707-14.507 c0-20.48-16.213-39.253-36.693-41.813c-5.12-0.853-10.24-0.853-14.507,0C266.093,11.8,280.6,29.72,280.6,50.2 c0,5.12-0.853,9.387-2.56,13.653c-4.267,11.947-5.973,25.6-3.413,37.547c6.827,25.6,22.187,42.667,40.107,42.667H331.8 C313.88,144.067,298.52,127,292.547,102.253"/> </g> <path style="fill:#FFFFFF;" d="M217.453,102.253c3.413-12.8,0.853-25.6-3.413-37.547c-0.853-5.12-1.707-9.387-1.707-14.507 c0-20.48,16.213-39.253,36.693-41.813c5.12-0.853,10.24-0.853,14.507,0C243.907,11.8,229.4,29.72,229.4,50.2 c0,5.12,0.853,9.387,2.56,13.653c4.267,11.947,5.973,25.6,3.413,37.547c-6.827,25.6-22.187,42.667-40.107,42.667H178.2 C196.12,144.067,211.48,127,217.453,102.253"/> <path style="fill:#3DB9F9;" d="M357.4,144.067h-25.6c14.507,0,25.6,11.093,25.6,25.6v42.667H383v-42.667 C383,155.16,371.907,144.067,357.4,144.067"/> <path style="fill:#FFFFFF;" d="M152.6,144.067h25.6c-14.507,0-25.6,11.093-25.6,25.6v42.667H127v-42.667 C127,155.16,138.093,144.067,152.6,144.067"/> <path d="M383,220.867H127c-5.12,0-8.533-3.413-8.533-8.533v-42.667c0-18.773,15.36-34.133,34.133-34.133h204.8 c18.773,0,34.133,15.36,34.133,34.133v42.667C391.533,217.453,388.12,220.867,383,220.867z M135.533,203.8h238.933v-34.133 c0-9.387-7.68-17.067-17.067-17.067H152.6c-9.387,0-17.067,7.68-17.067,17.067V203.8z"/> <path d="M331.8,511H178.2c-23.893,0-42.667-18.773-42.667-42.667v-256c0-5.12,3.413-8.533,8.533-8.533h221.867 c5.12,0,8.533,3.413,8.533,8.533v256C374.467,492.227,355.693,511,331.8,511z M152.6,220.867v247.467 c0,14.507,11.093,25.6,25.6,25.6h153.6c14.507,0,25.6-11.093,25.6-25.6V220.867H152.6z"/> <path d="M144.067,425.667H127c-33.28,0-59.733-37.547-59.733-85.333S93.72,255,127,255h17.067c5.12,0,8.533,3.413,8.533,8.533 v34.133c0,5.12-3.413,8.533-8.533,8.533H127c-1.707,0.853-8.533,10.24-8.533,34.133c0,25.6,7.68,34.133,8.533,34.133h17.067 c5.12,0,8.533,3.413,8.533,8.533v34.133C152.6,422.253,149.187,425.667,144.067,425.667z M127,272.067 c-23.04,0-42.667,31.573-42.667,68.267S103.96,408.6,127,408.6h8.533v-17.067H127c-11.947,0-25.6-13.653-25.6-51.2 c0-34.987,12.8-51.2,25.6-51.2h8.533v-17.067H127z"/> <path d="M383,425.667h-17.067c-5.12,0-8.533-3.413-8.533-8.533V383c0-5.12,3.413-8.533,8.533-8.533H383 c0.853,0,8.533-8.533,8.533-34.133c0-23.893-6.827-33.28-8.533-34.133h-17.067c-5.12,0-8.533-3.413-8.533-8.533v-34.133 c0-5.12,3.413-8.533,8.533-8.533H383c33.28,0,59.733,37.547,59.733,85.333S416.28,425.667,383,425.667z M374.467,408.6H383 c23.04,0,42.667-31.573,42.667-68.267S406.04,272.067,383,272.067h-8.533v17.067H383c12.8,0,25.6,16.213,25.6,51.2 c0,37.547-13.653,51.2-25.6,51.2h-8.533V408.6z"/> <path d="M272.067,280.6h-34.133c-5.12,0-8.533-3.413-8.533-8.533s3.413-8.533,8.533-8.533h34.133c5.12,0,8.533,3.413,8.533,8.533 S277.187,280.6,272.067,280.6z"/> <path d="M289.133,314.733h-68.267c-5.12,0-8.533-3.413-8.533-8.533s3.413-8.533,8.533-8.533h68.267c5.12,0,8.533,3.413,8.533,8.533 S294.253,314.733,289.133,314.733z"/> <path d="M272.067,348.867h-34.133c-5.12,0-8.533-3.413-8.533-8.533c0-5.12,3.413-8.533,8.533-8.533h34.133 c5.12,0,8.533,3.413,8.533,8.533C280.6,345.453,277.187,348.867,272.067,348.867z"/> <path d="M272.067,417.133h-34.133c-5.12,0-8.533-3.413-8.533-8.533c0-5.12,3.413-8.533,8.533-8.533h34.133 c5.12,0,8.533,3.413,8.533,8.533C280.6,413.72,277.187,417.133,272.067,417.133z"/> <path d="M289.133,451.267h-68.267c-5.12,0-8.533-3.413-8.533-8.533c0-5.12,3.413-8.533,8.533-8.533h68.267 c5.12,0,8.533,3.413,8.533,8.533C297.667,447.853,294.253,451.267,289.133,451.267z"/> <path d="M289.133,383h-68.267c-5.12,0-8.533-3.413-8.533-8.533c0-5.12,3.413-8.533,8.533-8.533h68.267 c5.12,0,8.533,3.413,8.533,8.533C297.667,379.587,294.253,383,289.133,383z"/> <path d="M255,41.667c-5.12,0-8.533-3.413-8.533-8.533v-25.6C246.467,2.413,249.88-1,255-1s8.533,3.413,8.533,8.533v25.6 C263.533,38.253,260.12,41.667,255,41.667z"/> <path d="M340.333,186.733H169.667c-5.12,0-8.533-3.413-8.533-8.533c0-5.12,3.413-8.533,8.533-8.533h170.667 c5.12,0,8.533,3.413,8.533,8.533C348.867,183.32,345.453,186.733,340.333,186.733z"/> <path d="M331.8,152.6H178.2c-5.12,0-8.533-3.413-8.533-8.533c0-5.12,3.413-8.533,8.533-8.533c12.8,0,25.6-14.507,31.573-35.84 c2.56-9.387,1.707-20.48-2.56-32.427c-2.56-5.973-3.413-11.093-3.413-17.067c0-14.507,6.827-29.013,17.92-38.4 c11.093-9.387,26.453-14.507,40.96-11.947C287.427,3.267,306.2,24.6,306.2,50.2c0,5.973-0.853,11.093-2.56,17.067l0,0 c-4.267,12.8-5.12,23.04-2.56,33.28c5.12,20.48,17.92,34.987,30.72,34.987c5.12,0,8.533,3.413,8.533,8.533 C340.333,149.187,336.92,152.6,331.8,152.6z M210.627,135.533h88.747c-6.827-8.533-11.947-18.773-15.36-31.573 s-2.56-26.453,3.413-42.667c0.853-3.413,1.707-7.68,1.707-11.093c0-17.067-12.8-31.573-29.013-34.133 c-10.24-1.707-19.627,1.707-27.307,7.68c-7.68,6.827-11.947,16.213-11.947,26.453c0,4.267,0.853,7.68,1.707,11.093 c5.12,15.36,6.827,29.867,3.413,42.667S217.453,127,210.627,135.533z M295.107,63.853L295.107,63.853L295.107,63.853z"/> </g> </g>
</svg>